<?xml version="1.0" encoding="UTF-8"?>
<svg width="437px" height="74px" viewBox="0 0 437 74" version="1.1" xmlns="http://www.w3.org/2000/svg" xmlns:xlink="http://www.w3.org/1999/xlink">
    <title>Group</title>
    <g id="Page-1" stroke="none" stroke-width="1" fill="none" fill-rule="evenodd">
        <g id="Group" transform="translate(-0.000135, -0.000027)" fill="#64B518">
            <path d="M107.115248,35.3279337 L107.115248,60.9320808 C107.115248,69.7698041 103.378266,72.4463717 95.5508015,72.4463717 C92.0663176,72.4463717 88.5313338,71.6888526 86.309344,70.7798296 L87.1678401,67.0932365 C89.3898299,67.8507556 92.2178169,68.5577735 95.3488025,68.5577735 C101.307775,68.5577735 102.822768,66.1337122 102.822768,60.6795744 L102.822768,58.2050118 C100.954277,60.5280705 98.0252901,62.2956152 94.136808,62.2956152 C86.763842,62.2956152 83.3803575,56.6899735 83.3803575,48.7612732 C83.3803575,40.8325728 86.8648415,34.7219184 94.5408062,34.7219184 C98.6817871,34.7219184 101.560274,37.2974835 103.024767,39.1660307 L103.277266,35.3279337 L107.115248,35.3279337 Z M102.671269,54.5689199 L102.671269,43.054629 C101.560274,41.4385881 98.7322869,38.7620205 95.3488025,38.7620205 C90.5008248,38.7620205 88.0768359,42.4991149 88.0768359,48.5087668 C88.0768359,54.3669148 90.1473264,58.3565157 95.1973032,58.3565157 C98.8332864,58.3565157 101.257275,56.033457 102.671269,54.5689199 Z M118.326197,35.3279337 L118.629195,39.3680358 C119.84119,36.7924707 122.01268,34.7219184 124.638668,34.7219184 C125.497164,34.7219184 126.40616,34.9239235 127.113156,35.1764299 L126.658658,39.5195396 C125.951662,39.2670332 125.244665,39.216532 124.386169,39.216532 C122.01268,39.216532 119.992689,41.5900919 119.083693,43.5091404 L119.083693,61.8411037 L114.639714,61.8411037 L114.639714,35.3279337 L118.326197,35.3279337 Z M150.999546,55.8819531 L152.767038,58.9120297 C149.787552,61.3865922 146.303068,62.447119 142.616585,62.447119 C135.09212,62.447119 130.345141,57.9020042 130.345141,48.7107719 C130.345141,40.2265575 135.09212,34.7219184 142.566085,34.7219184 C149.484553,34.7219184 153.221536,38.863023 153.221536,47.5997438 C153.221536,48.0542553 153.221536,49.5187923 153.171036,49.9228025 L135.09212,49.9228025 C135.193119,54.9729302 137.465609,58.6595233 142.970083,58.6595233 C145.84857,58.6595233 148.222059,57.8010016 150.999546,55.8819531 Z M135.09212,46.2867106 L148.878556,46.2867106 C148.828056,41.9941022 147.313063,38.4085115 142.616585,38.4085115 C136.708112,38.4085115 135.243619,43.7111455 135.09212,46.2867106 Z M178.673419,55.8819531 L180.440911,58.9120297 C177.461425,61.3865922 173.976941,62.447119 170.290458,62.447119 C162.765992,62.447119 158.019014,57.9020042 158.019014,48.7107719 C158.019014,40.2265575 162.765992,34.7219184 170.239958,34.7219184 C177.158426,34.7219184 180.895409,38.863023 180.895409,47.5997438 C180.895409,48.0542553 180.895409,49.5187923 180.844909,49.9228025 L162.765992,49.9228025 C162.866992,54.9729302 165.139481,58.6595233 170.643956,58.6595233 C173.522443,58.6595233 175.895932,57.8010016 178.673419,55.8819531 Z M162.765992,46.2867106 L176.552429,46.2867106 C176.501929,41.9941022 174.986936,38.4085115 170.290458,38.4085115 C164.381985,38.4085115 162.917492,43.7111455 162.765992,46.2867106 Z M186.955381,35.3279337 L190.793363,35.3279337 L191.096362,39.216532 C193.217352,36.6914681 196.196838,34.7219184 199.883321,34.7219184 C205.892794,34.7219184 208.165283,38.6610179 208.165283,44.4686647 L208.165283,61.8411037 L203.670804,61.8411037 L203.670804,45.5796928 C203.670804,40.9335754 202.105311,38.7620205 198.923826,38.7620205 C195.388842,38.7620205 192.409356,41.5900919 191.399361,42.8021226 L191.399361,61.8411037 L186.955381,61.8411037 L186.955381,35.3279337 Z M230.102586,44.0141532 L230.102586,53.3568893 C230.860083,54.0639072 232.779074,55.4779429 234.950564,55.4779429 C237.677552,55.4779429 239.495543,53.6093957 239.495543,48.6097693 C239.495543,43.8626494 238.13205,41.4890894 235.051564,41.4890894 C233.031573,41.4890894 230.961083,43.054629 230.102586,44.0141532 Z M230.102586,71.941359 L221.517626,71.941359 L221.517626,35.1259286 L228.537094,35.1259286 L229.496589,38.2065064 C231.870078,35.6814426 234.647566,34.5199133 237.93005,34.5199133 C243.939523,34.5199133 248.636001,38.7620205 248.636001,48.3067617 C248.636001,57.2454876 244.798019,62.447119 237.425053,62.447119 C233.68807,62.447119 231.314581,60.7300757 230.102586,59.6190476 L230.102586,71.941359 Z M252.372984,28.5102614 C252.372984,25.7326912 254.544474,24.3186555 257.321961,24.3186555 C260.250948,24.3186555 262.321438,25.7326912 262.321438,28.5102614 C262.321438,31.1363278 260.250948,32.5503635 257.321961,32.5503635 C254.594974,32.5503635 252.372984,31.1363278 252.372984,28.5102614 Z M261.462942,35.1259286 L261.462942,61.8411037 L252.877982,61.8411037 L252.877982,35.1259286 L261.462942,35.1259286 Z M265.048426,57.5989965 L268.53291,52.8518766 C271.057898,54.6699225 274.693881,56.033457 276.764372,56.033457 C278.683363,56.033457 279.440859,55.3264391 279.440859,54.3164136 C279.440859,53.0033804 278.632863,52.4983676 274.89588,51.5893446 C269.340906,50.2763115 266.462419,48.1047566 266.462419,43.2566341 C266.462419,37.9034988 270.805399,34.5199133 277.572368,34.5199133 C282.016348,34.5199133 285.75333,36.0349516 288.783316,38.8125218 L285.248333,43.4081379 C282.571845,41.8425983 280.198356,40.8325728 278.127866,40.8325728 C276.410873,40.8325728 275.501878,41.3375856 275.501878,42.4486136 C275.501878,43.6606443 276.764372,44.0646545 280.551854,45.1756826 C286.005829,46.7917234 288.682317,48.6602706 288.682317,53.4073906 C288.682317,59.2655386 284.389837,62.4976203 277.572368,62.4976203 C272.370892,62.4976203 267.825913,60.3765667 265.048426,57.5989965 Z M307.417731,41.3375856 L303.074751,41.3375856 L303.074751,54.1649097 C303.074751,55.5284442 303.630248,56.033457 304.842243,56.033457 C305.599739,56.033457 306.306736,55.8819531 307.013733,55.679948 L307.771229,61.4370935 C305.650239,62.1441114 303.630248,62.4976203 301.357759,62.4976203 C296.61078,62.4976203 294.54029,59.9220552 294.54029,55.7809506 L294.54029,41.3375856 L290.904307,41.3375856 L290.904307,36.489463 L294.691789,35.1764299 L295.499786,27.1972282 L303.074751,27.1972282 L303.074751,35.1259286 L307.417731,35.1259286 L307.417731,41.3375856 Z M325.294648,52.3973651 L325.294648,51.1853344 C324.486652,51.0338306 323.931155,50.9328281 322.82016,50.9328281 C320.244672,50.9328281 318.174181,51.5893446 318.174181,54.1144085 C318.174181,55.679948 319.184177,56.6394723 321.305167,56.6394723 C323.628156,56.6394723 325.294648,54.7709251 325.294648,52.3973651 Z M333.879609,44.6706698 L333.879609,61.8411037 L327.06214,61.8411037 L326.304644,58.7100246 C324.537152,61.0835846 321.759665,62.4976203 318.174181,62.4976203 C313.275704,62.4976203 309.74072,59.9220552 309.74072,54.5184187 C309.74072,49.9228025 313.174704,46.0847055 321.810165,46.0847055 C323.224158,46.0847055 324.183654,46.1352068 325.294648,46.2867106 L325.294648,44.8221736 C325.294648,42.3476111 323.981655,41.1355805 321.507166,41.1355805 C318.52768,41.1355805 316.30569,42.0951047 313.730202,43.4586392 L311.053714,38.3580103 C314.336199,35.9844503 318.47718,34.5199133 322.71916,34.5199133 C329.940627,34.5199133 333.879609,37.4994886 333.879609,44.6706698 Z M360.088988,53.4073906 L362.361478,58.609022 C359.533491,60.8310782 355.594509,62.4976203 350.847531,62.4976203 C343.171566,62.4976203 337.616592,57.6494978 337.616592,48.6097693 C337.616592,40.2770588 342.919067,34.5199133 351.201029,34.5199133 C358.422496,34.5199133 362.765476,38.307509 362.866476,45.7311966 L355.746008,45.7311966 C355.544009,42.70112 353.978517,41.4385881 351.605027,41.4385881 C348.575041,41.4385881 346.65605,43.4586392 346.65605,48.3067617 C346.65605,52.9023778 348.676041,55.7304493 352.413024,55.7304493 C354.988512,55.7304493 357.463,54.8214263 360.088988,53.4073906 Z M366.35096,25.4801848 L374.93592,25.4801848 L374.93592,37.9034988 C376.804411,35.9844503 379.632398,34.5199133 382.813884,34.5199133 C388.01536,34.5199133 391.247345,37.8024962 391.247345,43.6606443 L391.247345,61.8411037 L382.662385,61.8411037 L382.662385,45.8827004 C382.662385,43.1556315 381.955388,41.6405932 379.2789,41.6405932 C377.511408,41.6405932 375.794416,42.8021226 374.93592,43.7111455 L374.93592,61.8411037 L366.35096,61.8411037 L366.35096,25.4801848 Z M395.741824,28.5102614 C395.741824,25.7326912 397.913314,24.3186555 400.690802,24.3186555 C403.619788,24.3186555 405.690279,25.7326912 405.690279,28.5102614 C405.690279,31.1363278 403.619788,32.5503635 400.690802,32.5503635 C397.963814,32.5503635 395.741824,31.1363278 395.741824,28.5102614 Z M404.831783,35.1259286 L404.831783,61.8411037 L396.246822,61.8411037 L396.246822,35.1259286 L404.831783,35.1259286 Z M418.012222,48.4582655 C418.012222,53.6093957 420.032213,55.4779429 423.011699,55.4779429 C425.890186,55.4779429 427.960676,53.6093957 427.960676,48.4582655 C427.960676,43.4081379 425.940685,41.4385881 423.011699,41.4385881 C420.032213,41.4385881 418.012222,43.610143 418.012222,48.4582655 Z M24.0917814,0.000148573307 C36.0215712,1.77184631 49.1279118,12.7790473 57.1069796,29.1385607 C67.2768071,49.989797 60.6966556,62.2728539 48.1091519,69.2889349 C48.2213072,69.7673781 48.2042665,70.283044 48.0320625,70.7831607 C47.5505648,72.1815316 46.0383621,72.9288181 44.6544249,72.4522903 C44.1421551,72.2759017 43.7192664,71.9565516 43.4141971,71.5533231 C30.2526116,76.9494824 16.6853104,74.423102 6.6110499,53.767807 C-3.43161365,33.1772953 -1.79171756,11.4054665 9.89268322,3.12514129 C22.3038908,12.2328151 33.0581506,27.1031751 42.1561957,47.7361689 C43.1267225,52.645266 43.8724841,57.9295112 44.393143,63.5888546 C45.3880585,27.0875532 38.3544012,12.1630951 24.4178691,0.276720979 Z M423.112698,34.5199133 C430.940162,34.5199133 437.000135,39.1155294 437.000135,48.4582655 C437.000135,57.8010016 430.738163,62.4976203 422.607701,62.4976203 C414.325739,62.4976203 408.972763,57.8010016 408.972763,48.6602706 C408.972763,39.1660307 415.285234,34.5199133 423.112698,34.5199133 Z M17.7965299,0.260336262 C23.2232432,1.2196295 33.9844877,12.2110987 37.8564032,28.9822075 C38.3101433,30.9475719 38.6071746,32.7308088 38.7718714,34.3493795 C34.5059843,25.171632 26.7397779,14.8513448 15.4732124,3.38769192 C16.1657874,2.15091482 16.9446789,1.07915204 17.7965299,0.260336262 Z" id="Combined-Shape"></path>
        </g>
    </g>
</svg>