<?xml version="1.0" encoding="UTF-8"?>
<svg width="219px" height="38px" viewBox="0 0 219 38" version="1.1" xmlns="http://www.w3.org/2000/svg" xmlns:xlink="http://www.w3.org/1999/xlink">
    <title>Group</title>
    <g id="Page-1" stroke="none" stroke-width="1" fill="none" fill-rule="evenodd">
        <g id="Group" fill="#64B518">
            <path d="M54.2028025,18.4985987 L54.2028025,31.2866242 C54.2028025,35.7006369 52.3363057,37.0374522 48.4267516,37.0374522 C46.6863694,37.0374522 44.9207643,36.6591083 43.8109554,36.2050955 L44.2397452,34.3638217 C45.3495541,34.7421656 46.7620382,35.0952866 48.3258599,35.0952866 C51.3021656,35.0952866 52.0588535,33.884586 52.0588535,31.1605096 L52.0588535,29.924586 C51.1256051,31.0848408 49.6626752,31.9676433 47.7205096,31.9676433 C44.0379618,31.9676433 42.3480255,29.1678981 42.3480255,25.2078981 C42.3480255,21.2478981 44.0884076,18.1959236 47.922293,18.1959236 C49.9905732,18.1959236 51.4282803,19.482293 52.1597452,20.4155414 L52.2858599,18.4985987 L54.2028025,18.4985987 Z M51.9831847,28.108535 L51.9831847,22.357707 C51.4282803,21.5505732 50.0157962,20.213758 48.3258599,20.213758 C45.9044586,20.213758 44.693758,22.0802548 44.693758,25.0817834 C44.693758,28.0076433 45.7278981,30.0002548 48.2501911,30.0002548 C50.066242,30.0002548 51.2769427,28.84 51.9831847,28.108535 Z M59.802293,18.4985987 L59.9536306,20.5164331 C60.5589809,19.2300637 61.6435669,18.1959236 62.9551592,18.1959236 C63.383949,18.1959236 63.8379618,18.2968153 64.1910828,18.4229299 L63.9640764,20.5921019 C63.6109554,20.4659873 63.2578344,20.4407643 62.8290446,20.4407643 C61.6435669,20.4407643 60.6346497,21.626242 60.1806369,22.5847134 L60.1806369,31.7406369 L57.9610191,31.7406369 L57.9610191,18.4985987 L59.802293,18.4985987 Z M76.1215287,28.7643312 L77.0043312,30.277707 C75.5161783,31.5136306 73.7757962,32.0433121 71.9345223,32.0433121 C68.1763057,32.0433121 65.8053503,29.7732484 65.8053503,25.1826752 C65.8053503,20.9452229 68.1763057,18.1959236 71.9092994,18.1959236 C75.3648408,18.1959236 77.2313376,20.2642038 77.2313376,24.6277707 C77.2313376,24.8547771 77.2313376,25.586242 77.2061146,25.7880255 L68.1763057,25.7880255 C68.2267516,28.3103185 69.3617834,30.1515924 72.1110828,30.1515924 C73.5487898,30.1515924 74.7342675,29.7228025 76.1215287,28.7643312 Z M68.1763057,23.9719745 L75.0621656,23.9719745 C75.0369427,21.8280255 74.2802548,20.0371975 71.9345223,20.0371975 C68.9834395,20.0371975 68.2519745,22.6856051 68.1763057,23.9719745 Z M89.9436943,28.7643312 L90.8264968,30.277707 C89.3383439,31.5136306 87.5979618,32.0433121 85.7566879,32.0433121 C81.9984713,32.0433121 79.6275159,29.7732484 79.6275159,25.1826752 C79.6275159,20.9452229 81.9984713,18.1959236 85.731465,18.1959236 C89.1870064,18.1959236 91.0535032,20.2642038 91.0535032,24.6277707 C91.0535032,24.8547771 91.0535032,25.586242 91.0282803,25.7880255 L81.9984713,25.7880255 C82.0489172,28.3103185 83.183949,30.1515924 85.9332484,30.1515924 C87.3709554,30.1515924 88.5564331,29.7228025 89.9436943,28.7643312 Z M81.9984713,23.9719745 L88.8843312,23.9719745 C88.8591083,21.8280255 88.1024204,20.0371975 85.7566879,20.0371975 C82.8056051,20.0371975 82.0741401,22.6856051 81.9984713,23.9719745 Z M94.0802548,18.4985987 L95.9971975,18.4985987 L96.148535,20.4407643 C97.2078981,19.1796178 98.696051,18.1959236 100.537325,18.1959236 C103.538854,18.1959236 104.673885,20.1633121 104.673885,23.063949 L104.673885,31.7406369 L102.429045,31.7406369 L102.429045,23.6188535 C102.429045,21.2983439 101.647134,20.213758 100.058089,20.213758 C98.2924841,20.213758 96.8043312,21.626242 96.2998726,22.2315924 L96.2998726,31.7406369 L94.0802548,31.7406369 L94.0802548,18.4985987 Z M115.630828,22.8369427 L115.630828,27.5031847 C116.009172,27.8563057 116.967643,28.5625478 118.052229,28.5625478 C119.414268,28.5625478 120.322293,27.6292994 120.322293,25.1322293 C120.322293,22.7612739 119.641274,21.5757962 118.102675,21.5757962 C117.093758,21.5757962 116.059618,22.357707 115.630828,22.8369427 Z M115.630828,36.7852229 L111.34293,36.7852229 L111.34293,18.397707 L114.848917,18.397707 L115.328153,19.9363057 C116.513631,18.6751592 117.900892,18.0950318 119.540382,18.0950318 C122.541911,18.0950318 124.887643,20.213758 124.887643,24.9808917 C124.887643,29.4453503 122.970701,32.0433121 119.288153,32.0433121 C117.421656,32.0433121 116.236178,31.1857325 115.630828,30.630828 L115.630828,36.7852229 Z M126.75414,15.0935032 C126.75414,13.706242 127.838726,13 129.225987,13 C130.688917,13 131.723057,13.706242 131.723057,15.0935032 C131.723057,16.4050955 130.688917,17.1113376 129.225987,17.1113376 C127.863949,17.1113376 126.75414,16.4050955 126.75414,15.0935032 Z M131.294268,18.397707 L131.294268,31.7406369 L127.006369,31.7406369 L127.006369,18.397707 L131.294268,18.397707 Z M133.085096,29.6219108 L134.825478,27.2509554 C136.086624,28.1589809 137.902675,28.84 138.936815,28.84 C139.895287,28.84 140.273631,28.486879 140.273631,27.9824204 C140.273631,27.3266242 139.870064,27.0743949 138.003567,26.6203822 C135.229045,25.964586 133.791338,24.88 133.791338,22.4585987 C133.791338,19.7849682 135.96051,18.0950318 139.340382,18.0950318 C141.56,18.0950318 143.426497,18.8517197 144.939873,20.2389809 L143.174268,22.5342675 C141.837452,21.7523567 140.651975,21.2478981 139.617834,21.2478981 C138.760255,21.2478981 138.306242,21.5001274 138.306242,22.0550318 C138.306242,22.6603822 138.936815,22.8621656 140.828535,23.4170701 C143.552611,24.2242038 144.889427,25.1574522 144.889427,27.5284076 C144.889427,30.4542675 142.745478,32.068535 139.340382,32.068535 C136.74242,32.068535 134.472357,31.009172 133.085096,29.6219108 Z M154.247134,21.5001274 L152.077962,21.5001274 L152.077962,27.9067516 C152.077962,28.5877707 152.355414,28.84 152.960764,28.84 C153.339108,28.84 153.692229,28.7643312 154.04535,28.6634395 L154.423694,31.5388535 C153.364331,31.8919745 152.355414,32.068535 151.220382,32.068535 C148.849427,32.068535 147.815287,30.7821656 147.815287,28.7138854 L147.815287,21.5001274 L145.999236,21.5001274 L145.999236,19.0787261 L147.890955,18.4229299 L148.294522,14.437707 L152.077962,14.437707 L152.077962,18.397707 L154.247134,18.397707 L154.247134,21.5001274 Z M163.176051,27.023949 L163.176051,26.4185987 C162.772484,26.3429299 162.495032,26.2924841 161.940127,26.2924841 C160.653758,26.2924841 159.619618,26.6203822 159.619618,27.8815287 C159.619618,28.6634395 160.124076,29.1426752 161.183439,29.1426752 C162.343694,29.1426752 163.176051,28.2094268 163.176051,27.023949 Z M167.463949,23.1648408 L167.463949,31.7406369 L164.058854,31.7406369 L163.68051,30.1768153 C162.797707,31.362293 161.410446,32.068535 159.619618,32.068535 C157.172994,32.068535 155.407389,30.7821656 155.407389,28.0833121 C155.407389,25.7880255 157.122548,23.8710828 161.435669,23.8710828 C162.141911,23.8710828 162.621146,23.8963057 163.176051,23.9719745 L163.176051,23.2405096 C163.176051,22.004586 162.520255,21.3992357 161.284331,21.3992357 C159.796178,21.3992357 158.686369,21.8784713 157.4,22.5594904 L156.063185,20.0119745 C157.702675,18.8264968 159.770955,18.0950318 161.889682,18.0950318 C165.496561,18.0950318 167.463949,19.5831847 167.463949,23.1648408 Z M180.55465,27.5284076 L181.689682,30.1263694 C180.277197,31.2361783 178.309809,32.068535 175.938854,32.068535 C172.104968,32.068535 169.330446,29.6471338 169.330446,25.1322293 C169.330446,20.9704459 171.978854,18.0950318 176.115414,18.0950318 C179.722293,18.0950318 181.891465,19.9867516 181.941911,23.6945223 L178.385478,23.6945223 C178.284586,22.1811465 177.502675,21.5505732 176.317197,21.5505732 C174.803822,21.5505732 173.84535,22.5594904 173.84535,24.9808917 C173.84535,27.2761783 174.854268,28.6886624 176.720764,28.6886624 C178.007134,28.6886624 179.243057,28.2346497 180.55465,27.5284076 Z M183.682293,13.5801274 L187.970191,13.5801274 L187.970191,19.7849682 C188.903439,18.8264968 190.315924,18.0950318 191.904968,18.0950318 C194.50293,18.0950318 196.117197,19.7345223 196.117197,22.6603822 L196.117197,31.7406369 L191.829299,31.7406369 L191.829299,23.7701911 C191.829299,22.4081529 191.476178,21.651465 190.139363,21.651465 C189.256561,21.651465 188.398981,22.2315924 187.970191,22.6856051 L187.970191,31.7406369 L183.682293,31.7406369 L183.682293,13.5801274 Z M198.362038,15.0935032 C198.362038,13.706242 199.446624,13 200.833885,13 C202.296815,13 203.330955,13.706242 203.330955,15.0935032 C203.330955,16.4050955 202.296815,17.1113376 200.833885,17.1113376 C199.471847,17.1113376 198.362038,16.4050955 198.362038,15.0935032 Z M202.902166,18.397707 L202.902166,31.7406369 L198.614268,31.7406369 L198.614268,18.397707 L202.902166,18.397707 Z M209.48535,25.0565605 C209.48535,27.6292994 210.494268,28.5625478 211.98242,28.5625478 C213.420127,28.5625478 214.454268,27.6292994 214.454268,25.0565605 C214.454268,22.5342675 213.44535,21.5505732 211.98242,21.5505732 C210.494268,21.5505732 209.48535,22.6351592 209.48535,25.0565605 Z M12.7345491,0.853921134 C18.6933253,1.738383 25.2399946,7.23609868 29.2253597,15.4073081 C34.3050934,25.8223056 31.0177534,31.9571029 24.7298656,35.4612221 C24.7872799,35.69891 24.7788387,35.9567247 24.6927449,36.2067593 C24.4522594,36.9051797 23.6969566,37.2784171 23.0057288,37.0404083 C22.7495731,36.9522068 22.5381634,36.7924402 22.3857525,36.5907186 C15.8119726,39.2865127 9.03577177,38.0243682 4.00434673,27.7084181 C-1.01159462,17.4242143 -0.192471897,6.550161 5.64373706,2.41465945 C11.8430505,6.96445693 17.2143942,14.3917311 21.7585087,24.6971807 C22.242844,27.1488328 22.6152285,29.7875594 22.8752274,32.6135535 C23.3721541,14.3829297 19.8590796,6.92888914 12.898252,0.992223684 Z M212.032866,18.0950318 C215.94242,18.0950318 218.969172,20.3903185 218.969172,25.0565605 C218.969172,29.7228025 215.841529,32.068535 211.780637,32.068535 C207.644076,32.068535 204.970446,29.7228025 204.970446,25.1574522 C204.970446,20.4155414 208.123312,18.0950318 212.032866,18.0950318 Z M9.59111658,0.984040316 C12.3015767,1.46316061 17.6765101,6.95285192 19.6103464,15.3292173 C19.8369373,16.3106904 19.9852801,17.2012239 20.0675436,18.0095354 C17.9365112,13.4255219 14.0578503,8.2714914 8.43119618,2.54650929 C8.77640474,1.92858259 9.16553038,1.39310984 9.59111658,0.984040316 Z" id="Combined-Shape"></path>
        </g>
    </g>
</svg>